<?xml version="1.0" encoding="utf-8"?>
<!-- Generator: Adobe Illustrator 22.0.0, SVG Export Plug-In . SVG Version: 6.00 Build 0)  -->
<svg version="1.1" id="Layer_1" xmlns="http://www.w3.org/2000/svg" xmlns:xlink="http://www.w3.org/1999/xlink" x="0px" y="0px"
	 viewBox="0 0 116.2 116.2" style="enable-background:new 0 0 116.2 116.2;" xml:space="preserve">
<style type="text/css">
	.st0{fill-rule:evenodd;clip-rule:evenodd;fill:#F8D200;}
	.st1{fill-rule:evenodd;clip-rule:evenodd;fill:#3EAB37;}
	.st2{fill:#3EAB37;}
	.st3{fill:#3DAA36;}
</style>
<g>
	<path id="XMLID_47_" class="st0" d="M93.5,100.6c-1-2.4-2.3-5-3.4-7.4c-1.9-4.2-3-8.1-2-14.1c2.4-14.7,9.5-26.5,2.2-41.9
		c-2.6-5.3-6.5-8.9-11.3-11.2c-4.4-2.1-9.1-3.3-13.9-3.5c-4.8-0.2-17.9-0.8-16.3,6.3c0.1,0.6,1.7,4.2,1.7,4.2l37.4,77.6l1.2,2.6
		c4.2-1,5.8-4,5.7-7.3C94.75,104.3,94,101.8,93.5,100.6z M59.7,32.1c5-0.5,10,0.3,14.7,2.5c3.2,1.5,5.4,3.7,6.9,6.9
		c2.1,4.5,2.7,8.6,2.1,13.5c-0.7,5.9-2.6,11.9-4.1,17.9L59.7,32.1z"/>
	<path id="XMLID_46_" class="st1" d="M37,69l7.2,14.8l9.5,19.6c-7.5-5.4-14-12.2-18.3-18.5c-4.2-6-7.3-12.4-9-19.5
		c-1.3-5.4-1.5-11-0.3-16.4l0-0.1c0.1-0.3,0.1-0.5,0.2-0.7l0,0c0.1-0.4,0.2-0.7,0.4-1l0,0c0.7-1.5,1.7-2.3,2.9-2.4l0.1,0l0,0l0.1,0
		l0.1,0l0,0l0.1,0l0,0l0.1,0l0.1,0l0,0l0.1,0l0,0l0.1,0l0.1,0l0.1,0l0,0l0.1,0l0,0l0.1,0l0,0l0.1,0c0.1,0,0.1,0,0.2,0l0.1,0l0.1,0
		l0,0l0,0l0,0l0.1,0l0.1,0l0.1,0l0,0l0.1,0l0.1,0l0,0l0,0l0.1,0l0,0l0,0l0.1,0l0,0l0,0l0.1,0l0,0l0,0l0.1,0l0,0
		c1.1,0.5,2.3,1.4,3.5,2.5c-3.8-10.4-1.6-16.8,4.2-18.7c2.7-0.7,5.9,0.4,8.5,3.9l1,1.8l33.2,68.9l1.9,4l2.9,6.1
		c-0.6,0.2-1.3,0.3-2,0.3c-6.2,0.6-8.6-0.9-11.1-6l-0.9-1.9l-1.6-3.4l-26-54c-0.3-0.7-0.5-1.1-1-1.6c-0.6-0.6-1.4-1-2-0.7l0,0
		C41.9,46.7,41.8,48,42,49c0.1,0.8,0.3,1.1,0.6,1.8l24,49.8l0,0l5.9,12.3c-7.1-1.9-11.9-3.3-15.1-9.9l-7-14.5l0,0L38.5,63.6
		c-0.5-0.9-1.2-2.8-2.1-3.4C34.5,58.9,34.3,63.7,37,69z"/>
	<g id="XMLID_43_">
		<path id="XMLID_52_" class="st2" d="M12,7c0,0,8.3,31,29.9,18.5C45.6,1.7,12,7,12,7z"/>
		<path id="XMLID_53_" class="st3" d="M58.2,1.9c0,0-22.1,8.8-12.5,20.4C60.5,25.5,58.2,1.9,58.2,1.9z"/>
	</g>
</g>
</svg>
